ffmpeg started on 2016-12-01 at 20:52:41
Report written to "Output/x264/results/ffmpeg/old_town_cross_2160p50slow12000k.log"
Command line:
Tools/ffmpeg/ffmpeg -benchmark -y -i Input/y4m/old_town_cross_2160p50.y4m -c:v libx264 -preset slow -b:v 12000k -an Output/x264/encoded/old_town_cross_2160p50slow12000k.mkv
ffmpeg version N-82227-gdb23fde Copyright (c) 2000-2016 the FFmpeg developers
  built with gcc 5.4.0 (Ubuntu 5.4.0-6ubuntu1~16.04.2) 20160609
  configuration: --prefix=/home/jaroslav/ffmpeg_build --pkg-config-flags=--static --extra-cflags=-I/home/jaroslav/ffmpeg_build/include --extra-ldflags=-L/home/jaroslav/ffmpeg_build/lib --bindir=/home/jaroslav/bin --enable-gpl --enable-libass --enable-libfdk-aac --enable-libfreetype --enable-libmp3lame --enable-libopus --enable-libtheora --enable-libvorbis --enable-libvpx --enable-libx264 --enable-libx265 --enable-nvenc --enable-libmfx --enable-libxvid --enable-libgsm --enable-libopencore-amrnb --enable-version3 --enable-nonfree
  libavutil      55. 35.100 / 55. 35.100
  libavcodec     57. 66.101 / 57. 66.101
  libavformat    57. 57.100 / 57. 57.100
  libavdevice    57.  2.100 / 57.  2.100
  libavfilter     6. 66.100 /  6. 66.100
  libswscale      4.  3.100 /  4.  3.100
  libswresample   2.  4.100 /  2.  4.100
  libpostproc    54.  2.100 / 54.  2.100
Input #0, yuv4mpegpipe, from 'Input/y4m/old_town_cross_2160p50.y4m':
  Duration: 00:00:10.00, start: 0.000000, bitrate: 4976642 kb/s
    Stream #0:0: Video: rawvideo (I420 / 0x30323449), yuv420p(progressive), 3840x2160, SAR 1:1 DAR 16:9, 50 fps, 50 tbr, 50 tbn, 50 tbc
[libx264 @ 0x3134120] using SAR=1/1
[libx264 @ 0x3134120] using cpu capabilities: MMX2 SSE2Fast SSSE3 SSE4.2 AVX FMA3 AVX2 LZCNT BMI2
[libx264 @ 0x3134120] profile High, level 5.2
[libx264 @ 0x3134120] 264 - core 148 - H.264/MPEG-4 AVC codec - Copyleft 2003-2016 - http://www.videolan.org/x264.html - options: cabac=1 ref=5 deblock=1:0:0 analyse=0x3:0x113 me=hex subme=8 psy=1 psy_rd=1.00:0.00 mixed_ref=1 me_range=16 chroma_me=1 trellis=2 8x8dct=1 cqm=0 deadzone=21,11 fast_pskip=1 chroma_qp_offset=-2 threads=6 lookahead_threads=1 sliced_threads=0 nr=0 decimate=1 interlaced=0 bluray_compat=0 constrained_intra=0 bframes=3 b_pyramid=2 b_adapt=1 b_bias=0 direct=3 weightb=1 open_gop=0 weightp=2 keyint=250 keyint_min=25 scenecut=40 intra_refresh=0 rc_lookahead=50 rc=abr mbtree=1 bitrate=12000 ratetol=1.0 qcomp=0.60 qpmin=0 qpmax=69 qpstep=4 ip_ratio=1.40 aq=1:1.00
Output #0, matroska, to 'Output/x264/encoded/old_town_cross_2160p50slow12000k.mkv':
  Metadata:
    encoder         : Lavf57.57.100
    Stream #0:0: Video: h264 (libx264) (H264 / 0x34363248), yuv420p, 3840x2160 [SAR 1:1 DAR 16:9], q=-1--1, 12000 kb/s, 50 fps, 1k tbn, 50 tbc
    Metadata:
      encoder         : Lavc57.66.101 libx264
    Side data:
      cpb: bitrate max/min/avg: 0/0/12000000 buffer size: 0 vbv_delay: -1
Stream mapping:
  Stream #0:0 -> #0:0 (rawvideo (native) -> h264 (libx264))
Press [q] to stop, [?] for help
frame=   57 fps= 18 q=0.0 size=       0kB time=00:00:00.00 bitrate=N/A speed=   0x    frame=   62 fps= 14 q=32.0 size=       1kB time=-00:00:00.01 bitrate=N/A speed=N/A    frame=   63 fps= 12 q=32.0 size=       1kB time=00:00:00.00 bitrate=5872.0kbits/s speed=0.000188x    frame=   67 fps= 11 q=35.0 size=       1kB time=00:00:00.08 bitrate=  72.5kbits/s speed=0.0138x    frame=   70 fps= 11 q=45.0 size=       1kB time=00:00:00.14 bitrate=  41.6kbits/s speed=0.0219x    frame=   77 fps= 11 q=45.0 size=       1kB time=00:00:00.28 bitrate=  20.9kbits/s speed=0.0405x    frame=   84 fps= 11 q=44.0 size=       1kB time=00:00:00.42 bitrate=  13.9kbits/s speed=0.0564x    frame=   92 fps= 11 q=41.0 size=       1kB time=00:00:00.58 bitrate=  10.1kbits/s speed=0.0717x    frame=   97 fps= 11 q=40.0 size=       1kB time=00:00:00.68 bitrate=   8.6kbits/s speed=0.0789x    frame=  104 fps= 11 q=39.0 size=       1kB time=00:00:00.82 bitrate=   7.2kbits/s speed=0.0887x    frame=  108 fps= 11 q=39.0 size=       1kB time=00:00:00.90 bitrate=   6.5kbits/s speed=0.0921x    frame=  113 fps= 11 q=37.0 size=       1kB time=00:00:01.00 bitrate=   5.9kbits/s speed=0.0973x    frame=  117 fps= 11 q=37.0 size=       1kB time=00:00:01.08 bitrate=   5.4kbits/s speed= 0.1x    frame=  123 fps= 11 q=37.0 size=       1kB time=00:00:01.20 bitrate=   4.9kbits/s speed=0.103x    frame=  127 fps= 10 q=37.0 size=       1kB time=00:00:01.28 bitrate=   4.6kbits/s speed=0.105x    frame=  132 fps= 10 q=36.0 size=       1kB time=00:00:01.38 bitrate=   4.3kbits/s speed=0.108x    frame=  135 fps= 10 q=36.0 size=       1kB time=00:00:01.44 bitrate=   4.1kbits/s speed=0.108x    frame=  141 fps= 10 q=35.0 size=       1kB time=00:00:01.56 bitrate=   3.8kbits/s speed=0.112x    frame=  143 fps=9.9 q=36.0 size=       1kB time=00:00:01.60 bitrate=   3.7kbits/s speed=0.111x    frame=  149 fps=9.9 q=35.0 size=       1kB time=00:00:01.72 bitrate=   3.4kbits/s speed=0.114x    frame=  152 fps=9.7 q=35.0 size=       1kB time=00:00:01.78 bitrate=   3.3kbits/s speed=0.114x    frame=  155 fps=9.5 q=35.0 size=       1kB time=00:00:01.84 bitrate=   3.2kbits/s speed=0.113x    frame=  161 fps=9.5 q=35.0 size=       1kB time=00:00:01.96 bitrate=   3.0kbits/s speed=0.116x    frame=  163 fps=9.3 q=35.0 size=       1kB time=00:00:02.00 bitrate=   2.9kbits/s speed=0.114x    frame=  167 fps=9.3 q=35.0 size=       1kB time=00:00:02.08 bitrate=   2.8kbits/s speed=0.115x    frame=  171 fps=9.1 q=34.0 size=       1kB time=00:00:02.16 bitrate=   2.7kbits/s speed=0.115x    frame=  177 fps=9.0 q=34.0 size=       1kB time=00:00:02.28 bitrate=   2.6kbits/s speed=0.117x    frame=  180 fps=8.9 q=34.0 size=       1kB time=00:00:02.34 bitrate=   2.5kbits/s speed=0.116x    frame=  183 fps=8.8 q=34.0 size=       1kB time=00:00:02.40 bitrate=   2.4kbits/s speed=0.116x    frame=  187 fps=8.7 q=34.0 size=       1kB time=00:00:02.48 bitrate=   2.4kbits/s speed=0.116x    frame=  191 fps=8.7 q=34.0 size=       1kB time=00:00:02.56 bitrate=   2.3kbits/s speed=0.116x    frame=  195 fps=8.6 q=34.0 size=       1kB time=00:00:02.64 bitrate=   2.2kbits/s speed=0.116x    frame=  199 fps=8.5 q=34.0 size=       1kB time=00:00:02.72 bitrate=   2.2kbits/s speed=0.116x    frame=  203 fps=8.4 q=34.0 size=       1kB time=00:00:02.80 bitrate=   2.1kbits/s speed=0.116x    frame=  207 fps=8.3 q=34.0 size=       1kB time=00:00:02.88 bitrate=   2.0kbits/s speed=0.116x    frame=  212 fps=8.4 q=34.0 size=       1kB time=00:00:02.98 bitrate=   2.0kbits/s speed=0.117x    frame=  215 fps=8.2 q=34.0 size=       1kB time=00:00:03.04 bitrate=   1.9kbits/s speed=0.116x    frame=  219 fps=8.1 q=34.0 size=       1kB time=00:00:03.12 bitrate=   1.9kbits/s speed=0.116x    frame=  225 fps=8.2 q=34.0 size=       1kB time=00:00:03.24 bitrate=   1.8kbits/s speed=0.118x    frame=  227 fps=8.0 q=34.0 size=       1kB time=00:00:03.28 bitrate=   1.8kbits/s speed=0.116x    frame=  233 fps=8.0 q=34.0 size=       1kB time=00:00:03.40 bitrate=   1.7kbits/s speed=0.117x    frame=  235 fps=7.9 q=34.0 size=       1kB time=00:00:03.44 bitrate=   1.7kbits/s speed=0.116x    frame=  239 fps=7.9 q=34.0 size=       1kB time=00:00:03.52 bitrate=   1.7kbits/s speed=0.116x    frame=  243 fps=7.8 q=34.0 size=       1kB time=00:00:03.60 bitrate=   1.6kbits/s speed=0.116x    frame=  247 fps=7.8 q=34.0 size=       1kB time=00:00:03.68 bitrate=   1.6kbits/s speed=0.116x    frame=  251 fps=7.7 q=34.0 size=    5126kB time=00:00:03.76 bitrate=11165.1kbits/s speed=0.115x    frame=  256 fps=7.7 q=34.0 size=    5126kB time=00:00:03.86 bitrate=10875.9kbits/s speed=0.116x    frame=  259 fps=7.6 q=34.0 size=    5126kB time=00:00:03.92 bitrate=10709.5kbits/s speed=0.116x    frame=  263 fps=7.6 q=34.0 size=    5126kB time=00:00:04.00 bitrate=10495.4kbits/s speed=0.116x    frame=  267 fps=7.6 q=34.0 size=    5126kB time=00:00:04.08 bitrate=10289.6kbits/s speed=0.116x    frame=  271 fps=7.5 q=34.0 size=    5126kB time=00:00:04.16 bitrate=10091.8kbits/s speed=0.115x    frame=  272 fps=7.4 q=34.0 size=    5126kB time=00:00:04.18 bitrate=10043.5kbits/s speed=0.114x    frame=  273 fps=7.3 q=34.0 size=    5126kB time=00:00:04.20 bitrate=9995.7kbits/s speed=0.112x    frame=  275 fps=7.1 q=34.0 size=    5126kB time=00:00:04.24 bitrate=9901.4kbits/s speed=0.11x    frame=  279 fps=7.2 q=34.0 size=    5126kB time=00:00:04.32 bitrate=9718.1kbits/s speed=0.111x    frame=  280 fps=7.0 q=34.0 size=    5126kB time=00:00:04.34 bitrate=9673.3kbits/s speed=0.109x    frame=  282 fps=7.0 q=34.0 size=    5126kB time=00:00:04.38 bitrate=9585.0kbits/s speed=0.109x    frame=  285 fps=7.0 q=34.0 size=    5126kB time=00:00:04.44 bitrate=9455.5kbits/s speed=0.109x    frame=  288 fps=6.9 q=34.0 size=    5126kB time=00:00:04.50 bitrate=9329.5kbits/s speed=0.109x    frame=  291 fps=6.9 q=34.0 size=    5126kB time=00:00:04.56 bitrate=9206.7kbits/s speed=0.108x    frame=  294 fps=6.9 q=34.0 size=    5126kB time=00:00:04.62 bitrate=9087.2kbits/s speed=0.108x    frame=  297 fps=6.9 q=34.0 size=    5126kB time=00:00:04.68 bitrate=8970.7kbits/s speed=0.108x    frame=  300 fps=6.8 q=34.0 size=    5126kB time=00:00:04.74 bitrate=8857.2kbits/s speed=0.108x    frame=  303 fps=6.8 q=34.0 size=    5126kB time=00:00:04.80 bitrate=8746.5kbits/s speed=0.108x    frame=  307 fps=6.8 q=35.0 size=    5126kB time=00:00:04.88 bitrate=8603.2kbits/s speed=0.108x    frame=  310 fps=6.8 q=35.0 size=    7189kB time=00:00:04.94 bitrate=11919.4kbits/s speed=0.108x    frame=  312 fps=6.7 q=35.0 size=    7189kB time=00:00:04.98 bitrate=11823.6kbits/s speed=0.108x    frame=  317 fps=6.8 q=35.0 size=    7189kB time=00:00:05.08 bitrate=11590.9kbits/s speed=0.108x    frame=  321 fps=6.8 q=35.0 size=    7189kB time=00:00:05.16 bitrate=11411.3kbits/s speed=0.109x    frame=  324 fps=6.7 q=35.0 size=    7189kB time=00:00:05.22 bitrate=11280.1kbits/s speed=0.108x    frame=  330 fps=6.8 q=35.0 size=    7189kB time=00:00:05.34 bitrate=11026.7kbits/s speed=0.109x    frame=  332 fps=6.7 q=35.0 size=    7189kB time=00:00:05.38 bitrate=10944.7kbits/s speed=0.109x    frame=  337 fps=6.7 q=35.0 size=    7189kB time=00:00:05.48 bitrate=10745.0kbits/s speed=0.11x    frame=  340 fps=6.7 q=35.0 size=    7189kB time=00:00:05.54 bitrate=10628.7kbits/s speed=0.11x    frame=  344 fps=6.7 q=35.0 size=    7189kB time=00:00:05.62 bitrate=10477.4kbits/s speed=0.11x    frame=  348 fps=6.7 q=35.0 size=    7189kB time=00:00:05.70 bitrate=10330.4kbits/s speed=0.11x    frame=  352 fps=6.7 q=35.0 size=    7189kB time=00:00:05.78 bitrate=10187.4kbits/s speed=0.11x    frame=  356 fps=6.7 q=35.0 size=    7189kB time=00:00:05.86 bitrate=10048.4kbits/s speed=0.11x    frame=  360 fps=6.7 q=35.0 size=    7189kB time=00:00:05.94 bitrate=9913.1kbits/s speed=0.111x    frame=  364 fps=6.7 q=34.0 size=    7189kB time=00:00:06.02 bitrate=9781.4kbits/s speed=0.111x    frame=  368 fps=6.7 q=34.0 size=    7189kB time=00:00:06.10 bitrate=9653.1kbits/s speed=0.111x    frame=  372 fps=6.7 q=34.0 size=    7189kB time=00:00:06.18 bitrate=9528.2kbits/s speed=0.111x    frame=  376 fps=6.7 q=34.0 size=    7189kB time=00:00:06.26 bitrate=9406.4kbits/s speed=0.111x    frame=  380 fps=6.7 q=34.0 size=    7189kB time=00:00:06.34 bitrate=9287.7kbits/s speed=0.112x    frame=  384 fps=6.7 q=34.0 size=    7189kB time=00:00:06.42 bitrate=9172.0kbits/s speed=0.112x    frame=  388 fps=6.7 q=34.0 size=    7189kB time=00:00:06.50 bitrate=9059.1kbits/s speed=0.112x    frame=  392 fps=6.7 q=34.0 size=    7189kB time=00:00:06.58 bitrate=8949.0kbits/s speed=0.112x    frame=  396 fps=6.7 q=34.0 size=    7189kB time=00:00:06.66 bitrate=8841.5kbits/s speed=0.112x    frame=  400 fps=6.7 q=34.0 size=    7189kB time=00:00:06.74 bitrate=8736.6kbits/s speed=0.112x    frame=  404 fps=6.7 q=34.0 size=    7189kB time=00:00:06.82 bitrate=8634.1kbits/s speed=0.112x    frame=  408 fps=6.7 q=34.0 size=    7189kB time=00:00:06.90 bitrate=8534.1kbits/s speed=0.113x    frame=  412 fps=6.6 q=34.0 size=    7189kB time=00:00:06.98 bitrate=8436.3kbits/s speed=0.112x    frame=  416 fps=6.6 q=34.0 size=    7189kB time=00:00:07.06 bitrate=8340.7kbits/s speed=0.113x    frame=  420 fps=6.6 q=34.0 size=    7189kB time=00:00:07.14 bitrate=8247.2kbits/s speed=0.113x    frame=  424 fps=6.6 q=34.0 size=    7189kB time=00:00:07.22 bitrate=8155.9kbits/s speed=0.113x    frame=  428 fps=6.6 q=34.0 size=    7189kB time=00:00:07.30 bitrate=8066.5kbits/s speed=0.113x    frame=  432 fps=6.6 q=34.0 size=    7189kB time=00:00:07.38 bitrate=7979.1kbits/s speed=0.113x    frame=  436 fps=6.6 q=34.0 size=    7189kB time=00:00:07.46 bitrate=7893.5kbits/s speed=0.113x    frame=  440 fps=6.6 q=34.0 size=    7189kB time=00:00:07.54 bitrate=7809.8kbits/s speed=0.113x    frame=  444 fps=6.6 q=34.0 size=    7189kB time=00:00:07.62 bitrate=7727.8kbits/s speed=0.113x    frame=  448 fps=6.6 q=34.0 size=    7189kB time=00:00:07.70 bitrate=7647.5kbits/s speed=0.113x    frame=  452 fps=6.6 q=34.0 size=    7189kB time=00:00:07.78 bitrate=7568.9kbits/s speed=0.113x    frame=  456 fps=6.6 q=34.0 size=    7189kB time=00:00:07.86 bitrate=7491.9kbits/s speed=0.113x    frame=  460 fps=6.5 q=34.0 size=    7189kB time=00:00:07.94 bitrate=7416.4kbits/s speed=0.113x    frame=  464 fps=6.5 q=34.0 size=    7189kB time=00:00:08.02 bitrate=7342.4kbits/s speed=0.113x    frame=  468 fps=6.5 q=34.0 size=    7189kB time=00:00:08.10 bitrate=7269.9kbits/s speed=0.113x    frame=  472 fps=6.5 q=34.0 size=    7189kB time=00:00:08.18 bitrate=7198.8kbits/s speed=0.113x    frame=  476 fps=6.5 q=34.0 size=    7189kB time=00:00:08.26 bitrate=7129.1kbits/s speed=0.113x    frame=  480 fps=6.5 q=34.0 size=    7189kB time=00:00:08.34 bitrate=7060.7kbits/s speed=0.113x    frame=  484 fps=6.5 q=34.0 size=    7189kB time=00:00:08.42 bitrate=6993.6kbits/s speed=0.113x    frame=  488 fps=6.5 q=34.0 size=    7189kB time=00:00:08.50 bitrate=6927.8kbits/s speed=0.113x    frame=  492 fps=6.5 q=34.0 size=    7189kB time=00:00:08.58 bitrate=6863.2kbits/s speed=0.113x    frame=  496 fps=6.5 q=34.0 size=   12357kB time=00:00:08.66 bitrate=11688.0kbits/s speed=0.113x    frame=  500 fps=6.5 q=34.0 size=   12357kB time=00:00:08.74 bitrate=11581.0kbits/s speed=0.113x    frame=  500 fps=5.7 q=-1.0 Lsize=   14866kB time=00:00:09.94 bitrate=12250.2kbits/s speed=0.112x    
video:14861kB audio:0kB subtitle:0kB other streams:0kB global headers:0kB muxing overhead: 0.030786%
bench: utime=331.708s
bench: maxrss=2233208kB
[libx264 @ 0x3134120] frame I:3     Avg QP:29.35  size:550984
[libx264 @ 0x3134120] frame P:183   Avg QP:32.62  size: 47467
[libx264 @ 0x3134120] frame B:314   Avg QP:34.66  size: 15534
[libx264 @ 0x3134120] consecutive B-frames: 16.0%  0.8%  0.0% 83.2%
[libx264 @ 0x3134120] mb I  I16..4: 14.3% 72.0% 13.7%
[libx264 @ 0x3134120] mb P  I16..4:  0.0%  0.1%  0.0%  P16..4: 38.4%  3.5%  7.2%  0.0%  0.0%    skip:50.9%
[libx264 @ 0x3134120] mb B  I16..4:  0.0%  0.0%  0.0%  B16..8: 50.2%  0.2%  0.0%  direct: 0.1%  skip:49.5%  L0:47.9% L1:52.1% BI: 0.0%
[libx264 @ 0x3134120] final ratefactor: 26.43
[libx264 @ 0x3134120] 8x8 transform intra:72.2% inter:65.3%
[libx264 @ 0x3134120] direct mvs  spatial:98.7% temporal:1.3%
[libx264 @ 0x3134120] coded y,uvDC,uvAC intra: 90.5% 80.2% 62.0% inter: 4.6% 5.7% 0.0%
[libx264 @ 0x3134120] i16 v,h,dc,p: 13% 24% 12% 51%
[libx264 @ 0x3134120] i8 v,h,dc,ddl,ddr,vr,hd,vl,hu:  5%  8%  1% 14% 19% 14% 18%  9% 12%
[libx264 @ 0x3134120] i4 v,h,dc,ddl,ddr,vr,hd,vl,hu:  2%  2%  1% 20% 21% 14% 18% 10% 14%
[libx264 @ 0x3134120] i8c dc,h,v,p: 44% 28% 16% 12%
[libx264 @ 0x3134120] Weighted P-Frames: Y:0.5% UV:0.0%
[libx264 @ 0x3134120] ref P L0: 58.4% 18.7% 14.2%  3.7%  3.7%  1.2%
[libx264 @ 0x3134120] ref B L0: 77.0% 15.4%  6.5%  1.1%
[libx264 @ 0x3134120] ref B L1: 93.3%  6.7%
[libx264 @ 0x3134120] kb/s:12173.64
